<svg id="group" xmlns="http://www.w3.org/2000/svg" viewBox="0 0 899 492"><defs><style>.cls-1,.cls-2{fill:#161616;}.cls-1{opacity:0.72;isolation:isolate;}.cls-3{fill:#7ec575;}.cls-4{fill:#44a147;}.cls-5{fill:#0c713a;}.cls-6{fill:#1e431e;}.cls-7{fill:#5f5c5c;}</style></defs><title>bazel-at-scalio</title><g id="scalio"><g id="mountains_copy_4" data-name="mountains copy 4"><polygon class="cls-1" points="805.13 289.79 684.6 94.95 564.04 289.79 805.13 289.79"/><polygon class="cls-2" points="722.93 289.79 622.9 128.09 522.85 289.79 722.93 289.79"/></g></g><g id="scalio-2" data-name="scalio"><g id="logo"><path class="cls-2" d="M530.4,374.28c3.48,2.79,10.87,6.13,16.8,6.13,7.32,0,9.76-2.93,9.76-6.06,0-4.81-5.51-5.92-11.57-7.11s-19.44-3.07-19.44-15.4c0-12,10.8-15.19,19.37-15.19s13.87,2.65,19,6.55L559,350.58a26.15,26.15,0,0,0-14.71-4.88c-3.83,0-8.57,1.18-8.57,5.16,0,4.67,6.48,5.92,11.85,7,6.13,1.25,19.17,2.23,19.17,15.89,0,10.52-7.88,15.61-19.37,15.61-10.59,0-16.45-3.76-21.81-7.74Z"/><path class="cls-2" d="M600.58,345.63c-9.2,0-16.66,7.88-16.66,17.35s7.46,17.35,16.66,17.35a15.51,15.51,0,0,0,13.94-8.08l9.13,3.69c-3.76,7.95-12.13,13.45-23.07,13.45a26.41,26.41,0,0,1,0-52.83c11.36,0,19.44,6.2,23.07,13.52l-9.13,3.69A15.8,15.8,0,0,0,600.58,345.63Z"/><path class="cls-2" d="M626,388.42l26.07-51h1l26.07,51H668.47l-4-8h-24l-3.9,8H626Zm19.24-16.52h14.57l-7.25-15.4Z"/><path class="cls-2" d="M722.2,379.78v8.64H685.47v-51h9.76v42.37h27Z"/><path class="cls-2" d="M740.88,388.42h-9.76v-51h9.76v51Z"/><path class="cls-2" d="M752.24,362.92c0-14.57,10.45-26.48,26.41-26.48s26.48,11.92,26.48,26.48-10.45,26.48-26.48,26.48S752.24,377.55,752.24,362.92Zm9.69,0c0,9.27,7.53,17.42,16.73,17.42s16.73-8.15,16.73-17.42-7.46-17.35-16.73-17.35S761.92,353.72,761.92,362.92Z"/></g></g><g id="Layer_5" data-name="Layer 5"><path class="cls-2" d="M412.39,362.6c0-3-1.63-4.48-4.62-4.48a7.3,7.3,0,0,0-5.14,2l-1.41-1.66A9.6,9.6,0,0,1,408,356c3.74,0,6.73,2,6.73,6.29v7.58a24.11,24.11,0,0,0,.3,3.88H412.8a17.21,17.21,0,0,1-.26-2.81h-0.07a6.85,6.85,0,0,1-6.29,3.25c-2.63,0-6-1.41-6-5.25,0-5.33,5.88-5.81,12.21-5.81V362.6Zm-0.74,2.51c-4.11,0-8.88.48-8.88,3.74,0,2.48,2.11,3.29,4.07,3.29a5.4,5.4,0,0,0,5.55-5.73v-1.29h-0.74Z"/><path class="cls-2" d="M429,358.57h-4.88v10.1c0,2.59,1.07,3.18,2.59,3.18a5.29,5.29,0,0,0,2.18-.55l0.11,2.18a8.12,8.12,0,0,1-3,.52c-1.89,0-4.44-.81-4.44-4.62v-10.8H418v-2.11h3.59v-4.88h2.52v4.88H429v2.11Z"/></g><g id="bazel"><g id="bazel-2" data-name="bazel"><path class="cls-3" d="M138.46,87.45l52.46,52.46-52.46,52.45L86,139.9Z"/><path class="cls-4" d="M86,139.91v52.46l52.46,52.46V192.37Z"/><path class="cls-3" d="M243.39,87.45l52.46,52.46-52.46,52.45L190.92,139.9Z"/><path class="cls-4" d="M295.85,139.91v52.46l-52.46,52.46V192.37Z"/><path class="cls-4" d="M190.93,139.91l52.46,52.46-52.46,52.46-52.46-52.46Z"/><path class="cls-5" d="M190.93,244.84V297.3l-52.46-52.46V192.37Z"/><path class="cls-6" d="M190.93,244.84l52.46-52.47v52.46L190.92,297.3V244.84h0Z"/></g></g><g id="bazel-3" data-name="bazel"><path class="cls-7" d="M105.71,391.37V333.2h21a17,17,0,0,1,11.81,4.49,14.6,14.6,0,0,1,5,11.37,13,13,0,0,1-2.11,7.31,13.12,13.12,0,0,1-5.73,4.76v0.35a14.5,14.5,0,0,1,7.05,5,13.07,13.07,0,0,1,2.73,8.29,15.56,15.56,0,0,1-5.2,11.9,17.67,17.67,0,0,1-12.34,4.67H105.71Zm7.4-33.23h13.57a8.73,8.73,0,0,0,6.79-2.82,9.1,9.1,0,0,0,2.56-6.17,8.83,8.83,0,0,0-2.47-6.08,8.27,8.27,0,0,0-6.52-2.73H113.11v17.8Zm0,26h15a8.72,8.72,0,0,0,7-3,9.84,9.84,0,0,0,2.64-6.61A9.12,9.12,0,0,0,135,368a9.59,9.59,0,0,0-7.22-3H113v19.13h0.08Zm52.09,8.46A15.85,15.85,0,0,1,154.62,389a12.18,12.18,0,0,1-4.23-9.7,12,12,0,0,1,5-10.22,20.4,20.4,0,0,1,12.43-3.7c4.41,0,8,.79,10.84,2.47V366.7a8.89,8.89,0,0,0-3-7.05,10.88,10.88,0,0,0-7.4-2.64,11.16,11.16,0,0,0-5.9,1.59,8,8,0,0,0-3.61,4.23L152,359.91a14.91,14.91,0,0,1,5.46-6.61c2.73-2,6.26-3.08,10.75-3.08a18.28,18.28,0,0,1,12.69,4.49c3.35,3,5,7.14,5,12.6v24.06h-7.14v-5.55h-0.35a15.18,15.18,0,0,1-13.22,6.79h0Zm1.23-6.79a12,12,0,0,0,8.37-3.44,10.61,10.61,0,0,0,3.79-8.19c-2.11-1.76-5.29-2.56-9.52-2.56q-5.42,0-8.19,2.38a7.09,7.09,0,0,0-2.73,5.55,5.4,5.4,0,0,0,2.56,4.67,10.91,10.91,0,0,0,5.73,1.59h0ZM193,391.37v-6.52l22.65-26.53h-22v-6.79h31.23v6.52l-22.65,26.44h23v6.79H193v0.09Zm56.5,1.24c-6,0-10.93-2-14.63-6s-5.64-9.08-5.64-15.13a22.26,22.26,0,0,1,5.46-15,17.78,17.78,0,0,1,14-6.26c5.9,0,10.66,1.94,14.19,5.73s5.29,9,5.29,15.42l-0.09,1.41H236.68a13.51,13.51,0,0,0,4.05,9.52,12.43,12.43,0,0,0,8.64,3.53c5.38,0,9-2.29,10.84-6.79l6.7,2.73a18.1,18.1,0,0,1-6.44,7.76,19,19,0,0,1-10.93,3.08v0Zm10.75-26a11.18,11.18,0,0,0-3.08-6.52c-1.94-2-4.76-3.08-8.55-3.08a11.13,11.13,0,0,0-7.23,2.56,13.17,13.17,0,0,0-4.14,7h23v0.08Zm22.21,24.77H275V333.2h7.49v58.17Z"/></g></svg>