<?xml version="1.0" encoding="utf-8"?>
<!-- Generator: Adobe Illustrator 23.1.1, SVG Export Plug-In . SVG Version: 6.00 Build 0)  -->
<svg version="1.1" id="Layer_1" xmlns="http://www.w3.org/2000/svg" xmlns:xlink="http://www.w3.org/1999/xlink" x="0px" y="0px"
	 viewBox="0 0 300 300" style="enable-background:new 0 0 300 300;" xml:space="preserve">
<style type="text/css">
	.st0{fill:#D5333E;}
	.st1{fill:#D5333E;stroke:#FFFFFF;stroke-width:3;stroke-miterlimit:10;}
</style>
<path id="circle" class="st0" d="M150,0C67.3,0,0,67.3,0,150s67.3,150,150,150s150-67.3,150-150S232.7,0,150,0z M150,276
	c-69.6,0-126-56.4-126-126S80.4,24,150,24s126,56.4,126,126S219.6,276,150,276z"/>
<g id="Layer_2">
	<polyline id="flutter-icon-a" class="st0" points="188,176.1 143.5,131.4 127.1,147.8 155.3,176.1 	"/>
	<polygon class="st0" points="143.6,131.4 127.1,147.8 143.6,164.2 160,147.9 	"/>
	<polygon class="st0" points="160,147.9 143.6,164.2 167.7,155.8 	"/>
	<polygon class="st0" points="156,71.5 103.3,123.8 119.8,140.2 188.9,71.5 	"/>
	<polyline id="Path-3-2" class="st0" points="188.2,119.6 155.4,119.6 127.1,147.8 143.6,164.2 188.2,119.6 	"/>
	<polygon id="Path-4" class="st1" points="142.6,164.2 159,147.9 142.6,131.4 126.2,147.8 	"/>
</g>
<g>
	<path class="st0" d="M111.9,202.1h20.1v6.1h-13.5v6.1h12.5v6.1h-12.5V232h-6.6V202.1z"/>
	<path class="st0" d="M136.7,202.1h9l12.7,20.8h0.1v-20.8h6.6V232h-8.6l-13.1-21.3h-0.1V232h-6.6V202.1z"/>
	<path class="st0" d="M185.9,209.4c-1.1-1.4-3.2-2-4.8-2c-1.9,0-4.4,0.8-4.4,3.1c0,5.4,13.8,1.9,13.8,12.4c0,6.7-5.4,9.8-11.5,9.8
		c-3.8,0-7.2-1.1-10.1-3.8l4.7-5.2c1.4,1.8,3.5,2.8,5.7,2.8c2.2,0,4.6-1,4.6-3.1c0-5.5-14-2.5-14-12.5c0-6.4,5.5-9.7,11.4-9.7
		c3.4,0,6.6,0.9,9.2,3.1L185.9,209.4z"/>
</g>
</svg>
