<?xml version="1.0" encoding="utf-8"?>
<!-- Generator: Adobe Illustrator 23.1.1, SVG Export Plug-In . SVG Version: 6.00 Build 0)  -->
<svg version="1.1" id="group" xmlns="http://www.w3.org/2000/svg" xmlns:xlink="http://www.w3.org/1999/xlink" x="0px" y="0px"
	 viewBox="0 0 899 492" style="enable-background:new 0 0 899 492;" xml:space="preserve">
<style type="text/css">
	.st0{opacity:0.72;fill:#161616;enable-background:new    ;}
	.st1{fill:#161616;}
	.st2{font-family:'AvenirNextLTPro-Regular';}
	.st3{font-size:36.9898px;}
	.st4{fill:#17579B;}
	.st5{fill:#34B2EC;}
	.st6{fill:url(#Path_1_);}
	.st7{fill:#4EC5F7;}
	.st8{fill:none;}
	.st9{fill:#5F5C5C;}
	.st10{display:none;}
	.st11{display:inline;fill:#5F5C5C;}
</style>
<g id="scalio">
	<g id="mountains_copy_4">
		<polygon class="st0" points="805.1,289.8 684.6,94.9 564,289.8 		"/>
		<polygon class="st1" points="722.9,289.8 622.9,128.1 522.8,289.8 		"/>
	</g>
</g>
<g id="scalio_1_">
	<g id="logo_2_">
		<path class="st1" d="M530.4,374.3c3.5,2.8,10.9,6.1,16.8,6.1c7.3,0,9.8-2.9,9.8-6.1c0-4.8-5.5-5.9-11.6-7.1
			c-6-1.2-19.4-3.1-19.4-15.4c0-12,10.8-15.2,19.4-15.2c8.6,0,13.9,2.6,19,6.6l-5.4,7.4c-4.2-2.9-9.2-4.9-14.7-4.9
			c-3.8,0-8.6,1.2-8.6,5.2c0,4.7,6.5,5.9,11.8,7c6.1,1.3,19.2,2.2,19.2,15.9c0,10.5-7.9,15.6-19.4,15.6c-10.6,0-16.4-3.8-21.8-7.7
			L530.4,374.3z"/>
		<path class="st1" d="M600.6,345.6c-9.2,0-16.7,7.9-16.7,17.4c0,9.6,7.5,17.4,16.7,17.4c6.8,0,11.4-3.6,13.9-8.1l9.1,3.7
			c-3.8,7.9-12.1,13.5-23.1,13.5c-14.6,0-26.4-11.4-26.4-26.4c0-14.8,11.8-26.4,26.4-26.4c11.4,0,19.4,6.2,23.1,13.5l-9.1,3.7
			C611.9,349.2,607,345.6,600.6,345.6z"/>
		<path class="st1" d="M626,388.4l26.1-51h1l26.1,51h-10.6l-4-8h-24l-3.9,8H626z M645.2,371.9h14.6l-7.2-15.4L645.2,371.9z"/>
		<path class="st1" d="M722.2,379.8v8.6h-36.7v-51h9.8v42.4H722.2z"/>
		<path class="st1" d="M740.9,388.4h-9.8v-51h9.8V388.4z"/>
		<path class="st1" d="M752.2,362.9c0-14.6,10.5-26.5,26.4-26.5c16,0,26.5,11.9,26.5,26.5c0,14.6-10.5,26.5-26.5,26.5
			C762.7,389.4,752.2,377.6,752.2,362.9z M761.9,362.9c0,9.3,7.5,17.4,16.7,17.4c9.3,0,16.7-8.2,16.7-17.4c0-9.2-7.5-17.4-16.7-17.4
			C769.5,345.6,761.9,353.7,761.9,362.9z"/>
	</g>
</g>
<g id="Layer_5">
	<text transform="matrix(1 0 0 1 398.1486 373.7737)" class="st1 st2 st3">at</text>
</g>
<g id="flutter">
	<g id="flutter-icon-a-link">
		<polygon id="flutter-icon-a" class="st4" points="154.7,236.9 207.2,289.8 268,289.8 185.1,206.6 		"/>
	</g>
	<g id="Clipped">
		<g>
			<g id="Group-2">
				<g id="flutter-icon-d-link">
					<polygon id="flutter-icon-d" points="185.4,267.6 215.8,237.2 185.3,206.6 154.7,236.9 					"/>
				</g>
				<g id="flutter-icon-d-link-2">
					<polygon id="flutter-icon-d-2" class="st5" points="185.4,267.6 215.8,237.2 185.3,206.6 154.7,236.9 					"/>
				</g>
			</g>
		</g>
	</g>
	<g id="Clipped-2">
		<g>
			
				<linearGradient id="Path_1_" gradientUnits="userSpaceOnUse" x1="-1811.9523" y1="844.826" x2="-1813.0823" y2="844.381" gradientTransform="matrix(39.38 0 0 -26.67 71579.6641 22777.3984)">
				<stop  offset="0" style="stop-color:#17579B;stop-opacity:0"/>
				<stop  offset="1" style="stop-color:#000000;stop-opacity:0.4"/>
			</linearGradient>
			<polygon id="Path" class="st6" points="185.3,267.6 215.8,237.2 230.2,252 			"/>
		</g>
	</g>
	<polygon id="Path-2" class="st7" points="208.4,94.9 110.3,192.2 140.9,222.9 269.8,94.9 	"/>
	<polygon id="Path-3-2" class="st7" points="154.7,236.9 185.3,267.6 268.6,184.4 207.4,184.4 	"/>
	<polygon id="Path-4" class="st5" points="185.4,267.6 215.8,237.2 185.3,206.6 154.7,236.9 	"/>
	<rect x="160.9" y="372.2" class="st8" width="3.4" height="1.8"/>
	<g>
		<path class="st9" d="M110.7,364.7v23.8h-7.1V333h32.4v6.8h-25.2V358h22.8v6.7H110.7z"/>
		<path class="st9" d="M149.9,333v55.4h-7.1V333H149.9z"/>
		<path class="st9" d="M191.9,388.4H185v-5.3h-0.3c-1.1,1.9-2.7,3.4-5,4.6c-2.2,1.2-4.6,1.9-7,1.9c-4.6,0-8.2-1.3-10.7-4
			c-2.5-2.7-3.8-6.4-3.8-11.3v-23.9h7.1v23.4c0.2,6.2,3.3,9.3,9.4,9.3c2.8,0,5.2-1.1,7.1-3.4c1.9-2.3,2.9-5,2.9-8.2v-21h7.1V388.4z"
			/>
		<path class="st9" d="M240.7,389c-3.1,0-5.7-1-7.7-2.9c-2-1.9-3.1-4.6-3.1-8V357h-17.7v19.1c0,2.2,0.5,3.8,1.4,4.8
			c0.9,1,2,1.5,3.2,1.5c1.2,0,2.3-0.2,3.4-0.7l2.2,6.4c-1.9,0.7-4,1-6.5,1c-3.1,0-5.7-1-7.7-2.9c-2-1.9-3.1-4.6-3.1-8V357h-6.7v-6.5
			h6.7v-11.6h7.1v11.6h17.7v-11.6h7.1v11.6h9.3v6.5H237v18.9c0,2.5,0.5,4.2,1.5,5.1c1,0.9,2.1,1.4,3.3,1.4c0.6,0,1.1-0.1,1.7-0.2
			s1-0.3,1.5-0.5l2.2,6.4C245.4,388.7,243.2,389,240.7,389z"/>
		<path class="st9" d="M269.8,389.7c-5.6,0-10.2-1.9-13.8-5.7c-3.6-3.8-5.4-8.6-5.4-14.5c0-5.8,1.8-10.6,5.3-14.4
			c3.5-3.8,8-5.8,13.5-5.8c5.6,0,10.1,1.8,13.4,5.5c3.3,3.6,5,8.7,5,15.3l-0.1,0.8h-29.8c0.1,3.7,1.3,6.7,3.7,9
			c2.4,2.3,5.2,3.4,8.5,3.4c4.5,0,8.1-2.3,10.7-6.8l6.4,3.1c-1.7,3.2-4.1,5.7-7.1,7.5S273.6,389.7,269.8,389.7z M258.4,364.9h21.8
			c-0.2-2.6-1.3-4.8-3.2-6.5c-1.9-1.7-4.5-2.6-7.8-2.6c-2.7,0-5,0.8-6.9,2.5C260.3,359.9,259,362.1,258.4,364.9z"/>
		<path class="st9" d="M301.4,388.4h-7.1v-37.9h6.8v6.2h0.3c0.7-2,2.2-3.7,4.5-5.1c2.2-1.4,4.5-2.1,6.6-2.1c2.1,0,3.8,0.3,5.3,0.9
			l-2.2,6.9c-0.9-0.4-2.3-0.5-4.2-0.5c-2.7,0-5,1.1-7,3.3c-2,2.2-3,4.7-3,7.6V388.4z"/>
	</g>
</g>
<g id="bazel" class="st10">
	<path class="st11" d="M105.7,391.4v-58.2h21c4.6,0,8.5,1.5,11.8,4.5c3.3,3,5,6.8,5,11.4c0,2.7-0.7,5.2-2.1,7.3
		c-1.4,2.1-3.3,3.7-5.7,4.8v0.4c2.8,0.9,5.3,2.7,7.1,5c1.9,2.4,2.7,5.1,2.7,8.3c0,4.8-1.8,8.7-5.2,11.9c-3.4,3.1-7.8,4.8-12.3,4.7
		H105.7z M113.1,358.1h13.6c2.8,0,5.1-1,6.8-2.8c1.6-1.9,2.6-3.9,2.6-6.2c0-2.2-0.8-4.2-2.5-6.1c-1.7-1.9-3.8-2.7-6.5-2.7h-13.9
		L113.1,358.1z M113.1,384.1h15c2.9,0,5.2-1,7-3c1.8-2,2.6-4.2,2.6-6.6c0-2.4-0.9-4.6-2.7-6.5c-1.9-2-4.5-3.1-7.2-3H113L113.1,384.1
		L113.1,384.1z M165.2,392.6c-4.2,0-7.8-1.2-10.6-3.6c-2.8-2.5-4.2-5.6-4.2-9.7c0-4.3,1.7-7.8,5-10.2c3.3-2.5,7.5-3.7,12.4-3.7
		c4.4,0,8,0.8,10.8,2.5v-1.1c0-2.9-1-5.3-3-7.1c-2-1.8-4.5-2.6-7.4-2.6c-2.1,0-4.1,0.5-5.9,1.6c-1.8,1.1-3,2.5-3.6,4.2l-6.8-2.9
		c0.9-2.4,2.7-4.6,5.5-6.6s6.3-3.1,10.8-3.1c5.1,0,9.3,1.5,12.7,4.5c3.3,3,5,7.1,5,12.6v24.1h-7.1v-5.6h-0.4
		C175.3,390.3,170.9,392.6,165.2,392.6L165.2,392.6z M166.4,385.8c3.1,0,5.9-1.1,8.4-3.4c2.6-2.3,3.8-5,3.8-8.2
		c-2.1-1.8-5.3-2.6-9.5-2.6c-3.6,0-6.3,0.8-8.2,2.4c-1.8,1.6-2.7,3.4-2.7,5.6c0,1.9,0.9,3.5,2.6,4.7
		C162.4,385.3,164.4,385.8,166.4,385.8L166.4,385.8z M193,391.4v-6.5l22.7-26.5h-22v-6.8h31.2v6.5l-22.7,26.4h23v6.8L193,391.4
		L193,391.4z M249.5,392.6c-6,0-10.9-2-14.6-6c-3.8-4-5.6-9.1-5.6-15.1c0-5.8,1.9-10.8,5.5-15c3.6-4.1,8.3-6.3,14-6.3
		c5.9,0,10.7,1.9,14.2,5.7c3.5,3.9,5.3,9,5.3,15.4l-0.1,1.4h-31.5c0.2,4,1.6,7.1,4.1,9.5c2.5,2.3,5.4,3.5,8.6,3.5
		c5.4,0,9-2.3,10.8-6.8l6.7,2.7c-1.3,3.1-3.4,5.6-6.4,7.8C257.6,391.5,253.9,392.6,249.5,392.6L249.5,392.6z M260.3,366.6
		c-0.2-2.3-1.2-4.4-3.1-6.5c-1.9-2-4.8-3.1-8.5-3.1c-2.6,0-5.2,0.9-7.2,2.6c-2,1.8-3.4,4.1-4.1,7L260.3,366.6L260.3,366.6z
		 M282.5,391.4H275v-58.2h7.5V391.4z"/>
</g>
</svg>
