<svg id="Layer_1" data-name="Layer 1" xmlns="http://www.w3.org/2000/svg" viewBox="0 0 899 330"><defs><style>.cls-1,.cls-2{fill:#d5333e;}.cls-2{stroke:#fff;stroke-miterlimit:10;}</style></defs><title>header-BF</title><path id="circle" class="cls-1" d="M449.5,16c-82.74,0-150,67.26-150,150s67.26,150,150,150,150-67.26,150-150S532.24,16,449.5,16Zm0,276a126,126,0,1,1,126-126A126,126,0,0,1,449.5,292Z"/><path class="cls-1" d="M427.05,217.58h10.8c5.07,0,10.6,1.06,10.6,7.37,0,3.23-2,5.44-5,6.38v0.08a6.94,6.94,0,0,1,6.34,7.08c0,6.06-5.73,8.06-10.89,8.06H427.05v-29Zm6.38,11.58h4.62c2,0,4-.82,4-3.15s-2.29-3-4.3-3h-4.34v6.18Zm0,12h5.73c2,0,4.26-.86,4.26-3.4,0-2.74-3.07-3.19-5.16-3.19h-4.83v6.59Z"/><path class="cls-1" d="M453.82,217.58h19.44v5.89H460.2v5.89h12.07v5.89H460.2v11.29h-6.38v-29Z"/><g id="bazel"><path class="cls-2" d="M422.3,91.12l24.79,24.79L422.3,140.71,397.5,115.91Z"/><path class="cls-2" d="M395.62,118.71v24.79l24.79,24.83V143.55Z"/><path class="cls-2" d="M475.75,91.12l24.79,24.79-24.79,24.79L451,115.91Z"/><path class="cls-2" d="M503.38,117.75v24.79l-24.79,24.83V142.58Z"/><path class="cls-2" d="M449,117.75l24.79,24.79L449,167.37l-24.79-24.79Z"/><path class="cls-2" d="M448.06,170.27v24.79l-24.79-24.79V145.48Z"/><path class="cls-2" d="M451,170.27l24.79-24.79v24.79L451,195.07V170.27Z"/></g></svg>