<?xml version="1.0" encoding="utf-8"?>
<!-- Generator: Adobe Illustrator 24.1.0, SVG Export Plug-In . SVG Version: 6.00 Build 0)  -->
<svg version="1.1" id="Layer_2_1_" xmlns="http://www.w3.org/2000/svg" xmlns:xlink="http://www.w3.org/1999/xlink" x="0px" y="0px"
	 viewBox="0 0 899 330" style="enable-background:new 0 0 899 330;" xml:space="preserve">
<style type="text/css">
	.st0{fill:#D5333E;}
</style>
<path id="circle_1_" class="st0" d="M450.5,14.5c-82.7,0-150,67.3-150,150s67.3,150,150,150s150-67.3,150-150S533.2,14.5,450.5,14.5
	z M450.5,290.5c-69.6,0-126-56.4-126-126s56.4-126,126-126s126,56.4,126,126S520.1,290.5,450.5,290.5z"/>
<polygon class="st0" points="456.5,86 403.8,138.3 420.3,154.7 489.4,86 "/>
<polygon class="st0" points="488.7,134.1 455.9,134.1 444,145.9 444,145.9 427.6,162.3 455.8,190.6 488.5,190.6 460.4,162.4 "/>
<g>
	<path class="st0" d="M412.4,216.6h20.1v6.1H419v6.1h12.5v6.1H419v11.7h-6.6V216.6z"/>
	<path class="st0" d="M437.2,216.6h9l12.7,20.8h0.1v-20.8h6.6v29.9H457l-13.1-21.3h-0.1v21.3h-6.6V216.6z"/>
	<path class="st0" d="M486.4,223.9c-1.1-1.4-3.2-2-4.8-2c-1.9,0-4.4,0.8-4.4,3.1c0,5.4,13.8,1.9,13.8,12.4c0,6.7-5.4,9.8-11.5,9.8
		c-3.8,0-7.2-1.1-10.1-3.8l4.7-5.2c1.4,1.8,3.5,2.8,5.7,2.8s4.6-1,4.6-3.1c0-5.5-14-2.5-14-12.5c0-6.4,5.5-9.7,11.4-9.7
		c3.4,0,6.6,0.9,9.2,3.1L486.4,223.9z"/>
</g>
</svg>
