<?xml version="1.0" encoding="utf-8"?>
<!-- Generator: Adobe Illustrator 19.2.0, SVG Export Plug-In . SVG Version: 6.00 Build 0)  -->
<svg version="1.1" id="potentials" xmlns="http://www.w3.org/2000/svg" xmlns:xlink="http://www.w3.org/1999/xlink" x="0px" y="0px"
	 viewBox="0 0 900 186" style="enable-background:new 0 0 900 186;" xml:space="preserve">
<style type="text/css">
	.st0{fill:#161616;}
	.st1{opacity:0.72;fill:#161616;enable-background:new    ;}
</style>
<g id="message">
	<title>logo-black</title>
	<path d="M278.3,133.5l-3.5,11.8h-1.1l-3.1-10.6l0,0l-3.1,10.6h-1.1l-3.5-11.8h0.9l3,10.6l0,0l3.1-10.6h1.1l3.1,10.6l0,0l3-10.6
		H278.3z"/>
	<path d="M286.8,141.6h-6.3c-0.1,1.7,1.3,3.1,3,3.2c0,0,0,0,0.1,0c1,0,2-0.5,2.6-1.4l0.6,0.5c-0.7,1-1.9,1.6-3.2,1.6
		c-2.1,0-3.9-1.7-3.9-3.9c0-0.1,0-0.2,0-0.2c-0.1-2.1,1.5-3.9,3.6-4.1c0.1,0,0.1,0,0.2,0c1.9-0.1,3.5,1.4,3.6,3.3c0,0.1,0,0.2,0,0.3
		c0,0.1,0,0.2,0,0.3S286.8,141.4,286.8,141.6z M286.1,140.9c-0.1-1.6-1.1-2.8-2.8-2.8c-1.5,0-2.8,1.3-2.9,2.8H286.1L286.1,140.9z"/>
	<path d="M300,145.3h-0.9v-4.4c0-1.5-0.5-2.8-2.2-2.8c-1.3,0-2.6,1.1-2.6,3.3v3.9h-0.9v-12.6h0.9v6.3l0,0c0.5-1.1,1.5-1.8,2.7-1.7
		c2,0,2.8,1.4,2.8,3.2L300,145.3L300,145.3z"/>
	<path d="M308,145.3c-0.1-0.5-0.1-1-0.1-1.5h0c-0.5,1.1-1.6,1.7-2.8,1.7c-1.2,0-2.6-0.7-2.6-2.3c0-2.1,2.1-2.5,4.1-2.6
		c0.3,0,1,0,1.3,0v-0.4c0.1-1.1-0.6-2-1.7-2.2c-0.2,0-0.3,0-0.5,0c-0.9,0-1.7,0.3-2.3,0.9l-0.5-0.6c0.8-0.7,1.8-1.1,2.8-1.1
		c1.7,0,2.9,0.9,2.9,2.8v3.4c0,0.6,0,1.2,0.1,1.7L308,145.3L308,145.3z M307.9,141.3h-0.6c-1.8,0-3.9,0.2-3.9,1.9
		c0,1.2,1,1.6,1.9,1.6c1.8,0,2.6-1.4,2.6-2.8V141.3L307.9,141.3z"/>
	<path d="M318.1,145.3h-0.9v-4.4c0-1.5-0.5-2.8-2.2-2.8c-1.3,0-2.6,1.1-2.6,3.3v3.9h-0.9v-6c0-0.5,0-1.3-0.1-1.8h0.8
		c0,0.4,0.1,1.2,0.1,1.6l0,0c0.5-1.1,1.6-1.8,2.8-1.8c2,0,2.8,1.4,2.8,3.2L318.1,145.3L318.1,145.3z"/>
	<path d="M328.3,145.3h-0.9v-1.6l0,0c-0.6,1.1-1.8,1.8-3.1,1.8c-2.3-0.1-4-2-3.9-4.3c0.1-2.1,1.8-3.8,3.9-3.9c1.3,0,2.5,0.7,3.1,1.8
		l0,0v-6.4h0.9V145.3z M324.4,138c-1.9,0-3.1,1.5-3.1,3.4c0,1.8,1.1,3.3,3.1,3.3c1.8-0.1,3.2-1.8,3.1-3.6
		C327.4,139.5,326.1,138.2,324.4,138L324.4,138z"/>
	<path d="M337.6,144.3c-0.7,0.8-1.7,1.2-2.8,1.2c-2.3,0-4.1-1.8-4.1-4.1c0-2.3,1.8-4.1,4.1-4.1c1,0,2,0.4,2.7,1.2l-0.7,0.5
		c-0.5-0.6-1.3-1-2.1-1c-1.9,0-3.1,1.5-3.1,3.4c-0.1,1.7,1.2,3.2,2.9,3.3c0.1,0,0.2,0,0.3,0c0.8,0,1.6-0.3,2.1-1L337.6,144.3z"/>
	<path d="M343.3,138.2c-0.2,0-0.4-0.1-0.6-0.1c-1.4,0-2.4,1.2-2.4,3.2v4h-0.9v-6c0-0.5,0-1.3-0.1-1.8h0.8c0,0.4,0.1,1.2,0.1,1.6l0,0
		c0.4-1.1,1.4-1.8,2.5-1.8c0.1,0,0.2,0,0.3,0c0.1,0,0.2,0.1,0.2,0.2L343.3,138.2z"/>
	<path d="M350.1,145.3c-0.1-0.5-0.1-1-0.1-1.5h0c-0.5,1.1-1.6,1.7-2.8,1.7c-1.2,0-2.6-0.7-2.6-2.3c0-2.1,2.1-2.5,4.1-2.6
		c0.3,0,1,0,1.3,0v-0.4c0.1-1.1-0.6-2-1.7-2.2c-0.2,0-0.3,0-0.5,0c-0.9,0-1.7,0.3-2.3,0.9l-0.5-0.6c0.8-0.7,1.8-1.1,2.8-1.1
		c1.7,0,2.9,0.9,2.9,2.8v3.4c0,0.6,0,1.2,0.1,1.7L350.1,145.3L350.1,145.3z M350,141.3h-0.6c-1.8,0-3.9,0.2-3.9,1.9
		c0,1.2,1,1.6,1.9,1.6c1.8,0,2.6-1.4,2.6-2.8V141.3L350,141.3z"/>
	<path d="M357.2,133.3c-0.2-0.1-0.5-0.1-0.7-0.1c-1.2,0-1.5,0.9-1.5,2v2.3h1.9v0.7H355v7h-0.9v-7h-1.6v-0.7h1.6v-2.3
		c0-1.8,0.9-2.7,2.4-2.7c0.3,0,0.6,0,0.9,0.1L357.2,133.3z"/>
	<path d="M361.8,145.2c-0.4,0.1-0.8,0.2-1.2,0.2c-1,0.1-1.8-0.7-1.9-1.6c0-0.1,0-0.2,0-0.4v-5.2h-1.6v-0.7h1.6v-2.2h0.9v2.2h2.2v0.7
		h-2.2v4.9c0,1.1,0.5,1.4,1.2,1.4c0.3,0,0.6-0.1,0.9-0.2L361.8,145.2z"/>
	<path d="M369.8,145.5c-1.1,0-2.2-0.5-2.9-1.4l0.7-0.5c0.5,0.8,1.3,1.2,2.2,1.2c1,0,1.9-0.5,1.9-1.5c0-1.1-1-1.3-2.3-1.7
		c-1-0.2-2.1-0.6-2.1-2.1s1.3-2.2,2.6-2.2c1,0,2,0.4,2.6,1.3l-0.7,0.5c-0.4-0.7-1.1-1.1-1.9-1.1c-0.8,0-1.7,0.4-1.7,1.4
		c0,1,0.7,1.2,1.9,1.5c1.6,0.3,2.5,0.9,2.5,2.2C372.5,144.8,371.2,145.5,369.8,145.5z"/>
	<path d="M382.4,141.4c0,2.2-1.8,4-4.1,4s-4-1.8-4-4.1c0-2.2,1.8-4,4-4c2.2-0.1,4,1.6,4.1,3.8C382.4,141.2,382.4,141.3,382.4,141.4z
		 M375.2,141.4c0.1,1.7,1.6,3.1,3.3,2.9s3.1-1.6,2.9-3.3c-0.1-1.7-1.5-3-3.2-3c-1.7,0-3.1,1.4-3.1,3.1
		C375.2,141.2,375.2,141.3,375.2,141.4z"/>
	<path d="M385.7,145.3h-0.9v-12.6h0.9V145.3z"/>
	<path d="M394.4,145.3c0-0.4-0.1-1.2-0.1-1.6l0,0c-0.5,1.1-1.6,1.8-2.7,1.8c-2,0-2.8-1.4-2.8-3.2v-4.7h0.9v4.4
		c0,1.5,0.5,2.8,2.2,2.8c1.3,0,2.6-1.1,2.6-3.3v-3.9h0.9v6c0,0.4,0,1.3,0.1,1.8L394.4,145.3L394.4,145.3z"/>
	<path d="M401.3,145.2c-0.4,0.1-0.8,0.2-1.2,0.2c-1,0.1-1.8-0.7-1.9-1.6c0-0.1,0-0.2,0-0.4v-5.2h-1.6v-0.7h1.6v-2.2h0.9v2.2h2.2v0.7
		h-2.2v4.9c0,1.1,0.5,1.4,1.2,1.4c0.3,0,0.6-0.1,0.9-0.2L401.3,145.2z"/>
	<path d="M404.2,134.4c0,0.4-0.3,0.7-0.6,0.7c-0.4-0.1-0.6-0.5-0.5-0.8c0.1-0.2,0.3-0.4,0.5-0.5
		C403.9,133.8,404.2,134.1,404.2,134.4z M404,145.3h-0.9v-7.7h0.9L404,145.3L404,145.3z"/>
	<path d="M414.6,141.4c0,2.2-1.8,4-4.1,4c-2.2,0-4-1.8-4-4.1c0-2.2,1.8-4,4-4c2.2-0.1,4,1.6,4.1,3.8
		C414.6,141.2,414.6,141.3,414.6,141.4z M407.4,141.4c0.1,1.7,1.6,3.1,3.3,2.9s3.1-1.6,2.9-3.3c-0.1-1.7-1.5-3-3.2-3
		c-1.7,0-3.1,1.4-3.1,3.1C407.4,141.2,407.4,141.3,407.4,141.4z"/>
	<path d="M423.6,145.3h-0.9v-4.4c0-1.5-0.5-2.8-2.2-2.8c-1.3,0-2.6,1.1-2.6,3.3v3.9h-0.9v-6c0-0.5,0-1.3-0.1-1.8h0.8
		c0,0.4,0.1,1.2,0.1,1.6l0,0c0.5-1.1,1.6-1.8,2.8-1.8c2,0,2.8,1.4,2.8,3.2L423.6,145.3L423.6,145.3z"/>
	<path d="M428.6,145.5c-1.1,0-2.2-0.5-2.9-1.4l0.7-0.5c0.5,0.8,1.3,1.2,2.2,1.2c1,0,1.9-0.5,1.9-1.5c0-1.1-1-1.3-2.3-1.7
		c-1-0.2-2.1-0.6-2.1-2.1s1.3-2.2,2.6-2.2c1,0,2,0.4,2.6,1.3l-0.7,0.5c-0.4-0.7-1.1-1.1-1.9-1.1c-0.8,0-1.7,0.4-1.7,1.4
		c0,1,0.7,1.2,1.9,1.5c1.6,0.3,2.5,0.9,2.5,2.2C431.3,144.8,430,145.5,428.6,145.5z"/>
	<path d="M441,145.2c-0.4,0.1-0.8,0.2-1.2,0.2c-1,0.1-1.8-0.7-1.9-1.6c0-0.1,0-0.2,0-0.4v-5.2h-1.6v-0.7h1.6v-2.2h0.9v2.2h2.2v0.7
		h-2.2v4.9c0,1.1,0.5,1.4,1.2,1.4c0.3,0,0.6-0.1,0.9-0.2L441,145.2z"/>
	<path d="M450.4,141.4c0,2.2-1.8,4-4.1,4s-4-1.8-4-4.1c0-2.2,1.8-4,4-4c2.2-0.1,4,1.6,4.1,3.8C450.4,141.2,450.4,141.3,450.4,141.4z
		 M443.2,141.4c0.1,1.7,1.6,3.1,3.3,2.9s3.1-1.6,2.9-3.3c-0.1-1.7-1.5-3-3.2-3c-1.7,0-3.1,1.4-3.1,3.1
		C443.2,141.3,443.2,141.3,443.2,141.4L443.2,141.4z"/>
	<path d="M463.2,144.3c-0.7,0.8-1.7,1.2-2.8,1.2c-2.3,0-4.1-1.8-4.1-4.1c0-2.3,1.8-4.1,4.1-4.1l0,0c1,0,2,0.4,2.7,1.2l-0.7,0.5
		c-0.5-0.6-1.3-1-2.1-1c-1.9,0-3.1,1.5-3.1,3.4c-0.1,1.7,1.2,3.2,2.9,3.3c0.1,0,0.2,0,0.3,0c0.8,0,1.6-0.3,2.1-1L463.2,144.3z"/>
	<path d="M472.5,141.4c0,2.2-1.8,4-4.1,4s-4-1.8-4-4.1c0-2.2,1.8-4,4-4c2.2-0.1,4,1.6,4.1,3.8C472.5,141.2,472.5,141.3,472.5,141.4z
		 M465.4,141.4c0.1,1.7,1.6,3.1,3.3,2.9c1.7-0.1,3.1-1.6,2.9-3.3c-0.1-1.7-1.5-3-3.2-3c-1.7,0-3.1,1.4-3.1,3.1
		C465.3,141.2,465.3,141.3,465.4,141.4L465.4,141.4z"/>
	<path d="M486.5,145.3h-0.9v-4.4c0-1.5-0.5-2.8-2.1-2.8c-1.6,0-2.4,1.4-2.4,3.2v4h-0.9v-4.6c0-1.4-0.4-2.7-2-2.7
		c-1.2,0-2.4,1.1-2.4,3.3v3.9H475v-6c0-0.5,0-1.3-0.1-1.8h0.8c0,0.4,0.1,1.2,0.1,1.6l0,0c0.4-1.1,1.5-1.8,2.6-1.8
		c1.1,0,2.2,0.8,2.4,1.9l0,0c0.4-1.2,1.5-1.9,2.8-1.9c2,0,2.8,1.4,2.8,3.2L486.5,145.3L486.5,145.3z"/>
	<path d="M493.5,145.5c-1.3,0-2.4-0.7-3.1-1.8h0v5.5h-0.9v-11.7h0.9v1.6h0c0.6-1.1,1.8-1.8,3.1-1.8c2.3,0,3.9,1.8,3.9,4.1
		c0.1,2.1-1.5,3.9-3.6,4.1C493.7,145.5,493.6,145.5,493.5,145.5z M493.4,138c-1.8,0.1-3.2,1.8-3.1,3.6c0.1,1.6,1.4,3,3.1,3.1
		c1.9,0,3.1-1.5,3.1-3.3C496.5,139.6,495.3,138,493.4,138L493.4,138z"/>
	<path d="M500.8,145.3h-0.9v-12.6h0.9V145.3z"/>
	<path d="M510.5,141.6h-6.3c-0.1,1.7,1.3,3.1,3,3.2c0,0,0,0,0.1,0c1,0,2-0.5,2.6-1.4l0.6,0.5c-0.7,1-1.9,1.6-3.2,1.6
		c-2.1,0-3.9-1.7-3.9-3.9c0-0.1,0-0.2,0-0.2c-0.1-2.1,1.5-3.9,3.6-4.1c0.1,0,0.1,0,0.2,0c1.9-0.1,3.5,1.4,3.6,3.3c0,0.1,0,0.2,0,0.3
		c0,0.1,0,0.2,0,0.3S510.5,141.4,510.5,141.6z M509.8,140.9c-0.1-1.6-1.1-2.8-2.8-2.8c-1.5,0-2.8,1.3-2.9,2.8H509.8z"/>
	<path d="M519,145.3h-1.1l-2.5-3.4l-2.5,3.4h-1.1l3-4l-2.8-3.7h1.1l2.2,3.1l2.2-3.1h1l-2.7,3.7L519,145.3z"/>
	<path d="M528.3,145.2c-0.4,0.1-0.8,0.2-1.2,0.2c-1,0.1-1.8-0.7-1.9-1.6c0-0.1,0-0.2,0-0.4v-5.2h-1.6v-0.7h1.6v-2.2h0.9v2.2h2.2v0.7
		h-2.2v4.9c0,1.1,0.5,1.4,1.2,1.4c0.3,0,0.6-0.1,0.9-0.2L528.3,145.2z"/>
	<path d="M536.7,141.6h-6.3c-0.1,1.7,1.3,3.1,3,3.2c0,0,0,0,0.1,0c1,0,2-0.5,2.6-1.4l0.6,0.5c-0.7,1-1.9,1.6-3.2,1.6
		c-2.1,0-3.9-1.7-3.9-3.9c0-0.1,0-0.2,0-0.2c-0.1-2.1,1.5-3.9,3.6-4.1c0.1,0,0.1,0,0.2,0c1.9-0.1,3.5,1.4,3.6,3.3c0,0.1,0,0.2,0,0.3
		c0,0.1,0,0.2,0,0.3S536.8,141.4,536.7,141.6z M536,140.9c-0.1-1.6-1.1-2.8-2.8-2.8c-1.5,0-2.8,1.3-2.9,2.8H536L536,140.9z"/>
	<path d="M545.6,144.3c-0.7,0.8-1.7,1.2-2.8,1.2c-2.3,0-4.1-1.8-4.1-4.1c0-2.3,1.8-4.1,4.1-4.1c1,0,2,0.4,2.7,1.2l-0.7,0.5
		c-0.5-0.6-1.3-1-2.1-1c-1.9,0-3.1,1.5-3.1,3.4c-0.1,1.7,1.2,3.2,2.9,3.3c0.1,0,0.2,0,0.3,0c0.8,0,1.6-0.3,2.1-1L545.6,144.3z"/>
	<path d="M554,145.3h-0.9v-4.4c0-1.5-0.5-2.8-2.2-2.8c-1.3,0-2.6,1.1-2.6,3.3v3.9h-0.9v-12.6h0.9v6.3l0,0c0.5-1.1,1.5-1.8,2.7-1.7
		c2,0,2.8,1.4,2.8,3.2L554,145.3L554,145.3z"/>
	<path d="M563.4,145.3h-0.9v-4.4c0-1.5-0.5-2.8-2.2-2.8c-1.3,0-2.6,1.1-2.6,3.3v3.9H557v-6c0-0.5,0-1.3-0.1-1.8h0.8
		c0,0.4,0.1,1.2,0.1,1.6l0,0c0.5-1.1,1.6-1.8,2.8-1.8c2,0,2.8,1.4,2.8,3.2L563.4,145.3L563.4,145.3z"/>
	<path d="M567.5,134.4c0,0.4-0.3,0.7-0.6,0.7c-0.4-0.1-0.6-0.5-0.5-0.8c0.1-0.2,0.3-0.4,0.5-0.5
		C567.2,133.8,567.5,134.1,567.5,134.4z M567.3,145.3h-0.9v-7.7h0.9V145.3z"/>
	<path d="M576.6,144.3c-0.7,0.8-1.7,1.2-2.8,1.2c-2.3,0-4.1-1.8-4.1-4.1c0-2.3,1.8-4.1,4.1-4.1c1,0,2,0.4,2.7,1.2l-0.7,0.5
		c-0.5-0.6-1.3-1-2.1-1c-1.9,0-3.1,1.5-3.1,3.4c-0.1,1.7,1.2,3.2,2.9,3.3c0.1,0,0.2,0,0.3,0c0.8,0,1.6-0.3,2.1-1L576.6,144.3z"/>
	<path d="M583.5,145.3c-0.1-0.5-0.1-1-0.1-1.5h0c-0.5,1.1-1.6,1.7-2.8,1.7c-1.2,0-2.6-0.7-2.6-2.3c0-2.1,2.1-2.5,4.1-2.6
		c0.3,0,1,0,1.3,0v-0.4c0.1-1.1-0.6-2-1.7-2.2c-0.2,0-0.3,0-0.5,0c-0.9,0-1.7,0.3-2.3,0.9l-0.5-0.6c0.8-0.7,1.8-1.1,2.8-1.1
		c1.7,0,2.9,0.9,2.9,2.8v3.4c0,0.6,0,1.2,0.1,1.7L583.5,145.3L583.5,145.3z M583.3,141.3h-0.6c-1.8,0-3.9,0.2-3.9,1.9
		c0,1.2,1,1.6,1.9,1.6c1.8,0,2.6-1.4,2.6-2.8L583.3,141.3L583.3,141.3z"/>
	<path d="M588,145.3h-0.9v-12.6h0.9V145.3z"/>
	<path d="M596.3,134.4c0,0.4-0.3,0.7-0.6,0.7c-0.4-0.1-0.6-0.5-0.5-0.8c0.1-0.2,0.3-0.4,0.5-0.5C596,133.8,596.3,134.1,596.3,134.4z
		 M596.1,145.3h-0.9v-7.7h0.9V145.3z"/>
	<path d="M601.2,145.5c-1.1,0-2.2-0.5-2.9-1.4l0.7-0.5c0.5,0.8,1.3,1.2,2.2,1.2c1,0,1.9-0.5,1.9-1.5c0-1.1-1-1.3-2.3-1.7
		c-1-0.2-2.1-0.6-2.1-2.1s1.3-2.2,2.6-2.2c1,0,2,0.4,2.6,1.3l-0.7,0.5c-0.4-0.7-1.1-1.1-1.9-1.1c-0.8,0-1.7,0.4-1.7,1.4
		c0,1,0.7,1.2,1.9,1.5c1.6,0.3,2.5,0.9,2.5,2.2C604,144.8,602.6,145.5,601.2,145.5z"/>
	<path d="M608.3,145.5c-1.1,0-2.2-0.5-2.9-1.4l0.7-0.5c0.5,0.8,1.3,1.2,2.2,1.2c1,0,1.9-0.5,1.9-1.5c0-1.1-1-1.3-2.3-1.7
		c-1-0.2-2.1-0.6-2.1-2.1s1.3-2.2,2.6-2.2c1,0,2,0.4,2.6,1.3l-0.7,0.5c-0.4-0.7-1.1-1.1-1.9-1.1c-0.8,0-1.7,0.4-1.7,1.4
		c0,1,0.7,1.2,1.9,1.5c1.6,0.3,2.5,0.9,2.5,2.2C611.1,144.8,609.7,145.5,608.3,145.5z"/>
	<path d="M619,145.3c0-0.4-0.1-1.2-0.1-1.6l0,0c-0.5,1.1-1.6,1.8-2.7,1.8c-2,0-2.8-1.4-2.8-3.2v-4.7h0.9v4.4c0,1.5,0.5,2.8,2.2,2.8
		c1.3,0,2.6-1.1,2.6-3.3v-3.9h0.9v6c0,0.4,0,1.3,0.1,1.8L619,145.3L619,145.3z"/>
	<path d="M629.5,141.6h-6.3c-0.1,1.7,1.3,3.1,3,3.2c0,0,0,0,0.1,0c1,0,2-0.5,2.6-1.4l0.6,0.5c-0.7,1-1.9,1.6-3.2,1.6
		c-2.1,0-3.9-1.7-3.9-3.9c0-0.1,0-0.2,0-0.2c-0.1-2.1,1.5-3.9,3.6-4.1c0.1,0,0.1,0,0.2,0c1.9-0.1,3.5,1.4,3.6,3.3c0,0.1,0,0.2,0,0.3
		c0,0.1,0,0.2,0,0.3S629.5,141.4,629.5,141.6z M628.8,140.9c-0.1-1.6-1.1-2.8-2.8-2.8c-1.5,0-2.8,1.3-2.9,2.8H628.8L628.8,140.9z"/>
	<path d="M634.2,145.5c-1.1,0-2.2-0.5-2.9-1.4l0.7-0.5c0.5,0.8,1.3,1.2,2.2,1.2c1,0,1.9-0.5,1.9-1.5c0-1.1-1-1.3-2.3-1.7
		c-1-0.2-2.1-0.6-2.1-2.1s1.3-2.2,2.6-2.2c1,0,2,0.4,2.6,1.3l-0.7,0.5c-0.4-0.7-1.1-1.1-1.9-1.1c-0.8,0-1.7,0.4-1.7,1.4
		c0,1,0.7,1.2,1.9,1.5c1.6,0.3,2.5,0.9,2.5,2.2C636.9,144.8,635.6,145.5,634.2,145.5z"/>
</g>
<g id="logo_1_">
	<g id="logo_4_">
		<path class="st0" d="M377.4,100.2c3.3,2.7,10.4,5.9,16,5.9c7,0,9.3-2.8,9.3-5.8c0-4.6-5.2-5.7-11-6.8s-18.5-2.9-18.5-14.7
			c0-11.4,10.3-14.5,18.5-14.5s13.2,2.5,18.1,6.2l-5.1,7c-4.1-2.9-9-4.6-14-4.7c-3.7,0-8.2,1.1-8.2,4.9c0,4.5,6.2,5.7,11.3,6.7
			c5.9,1.2,18.3,2.1,18.3,15.2c0,10-7.5,14.9-18.5,14.9c-10.1,0-15.7-3.6-20.8-7.4L377.4,100.2z"/>
		<path class="st0" d="M444.4,72.9c-8.8,0-15.9,7.5-15.9,16.5c0,9.2,7.1,16.5,15.9,16.5c5.5,0.1,10.6-2.9,13.3-7.7l8.7,3.5
			c-3.6,7.6-11.6,12.8-22,12.8c-13.9-0.2-25-11.7-24.8-25.6c0.2-13.6,11.2-24.5,24.8-24.8c10.8,0,18.5,5.9,22,12.9l-8.7,3.5
			C455,75.9,449.9,72.9,444.4,72.9z"/>
		<path class="st0" d="M468.5,113.7l24.9-48.7h0.9l24.9,48.7h-10.1l-3.8-7.6h-22.9l-3.7,7.6H468.5z M486.9,98h13.9l-6.9-14.7
			L486.9,98z"/>
		<path class="st0" d="M560.4,105.5v8.2h-35V65.1h9.3v40.4C534.6,105.5,560.4,105.5,560.4,105.5z"/>
		<path class="st0" d="M578.2,113.7h-9.3V65.1h9.3L578.2,113.7L578.2,113.7L578.2,113.7z"/>
		<path class="st0" d="M589,89.4c0-13.9,10-25.3,25.2-25.3s25.3,11.4,25.3,25.3s-10,25.3-25.3,25.3S589,103.4,589,89.4z M598.3,89.4
			c0,8.8,7.2,16.6,15.9,16.6s15.9-7.8,15.9-16.6s-7.1-16.5-15.9-16.5S598.3,80.6,598.3,89.4z"/>
	</g>
	<g id="mountains_2_">
		<polygon class="st1" points="360.4,116.4 317.8,47.5 275.1,116.4 		"/>
		<polygon class="st0" points="331.3,116.4 295.9,59.2 260.5,116.4 		"/>
	</g>
</g>
</svg>
