<svg id="potentials" xmlns="http://www.w3.org/2000/svg" viewBox="0 0 900 186"><defs><style>.cls-1,.cls-2{fill:#161616;}.cls-2{opacity:0.72;isolation:isolate;}</style></defs><title>logo-black</title><g id="grayscale"><g id="logo"><path class="cls-1" d="M345.33,99.06c4.79,3.83,15,8.44,23.1,8.44,10.07,0,13.42-4,13.42-8.34,0-6.62-7.57-8.15-15.91-9.78s-26.75-4.22-26.75-21.19c0-16.49,14.86-20.9,26.65-20.9s19.08,3.64,26.17,9l-7.38,10.16a36,36,0,0,0-20.23-6.71c-5.27,0-11.79,1.63-11.79,7.09,0,6.42,8.92,8.15,16.3,9.68,8.44,1.73,26.36,3.07,26.36,21.86,0,14.48-10.83,21.48-26.65,21.48-14.57,0-22.63-5.18-30-10.64Z"/><path class="cls-1" d="M441.88,59.66C429.23,59.66,419,70.49,419,83.53c0,13.23,10.26,23.87,22.91,23.87a21.34,21.34,0,0,0,19.17-11.12l12.56,5.08c-5.18,10.93-16.68,18.5-31.73,18.5a36.34,36.34,0,0,1,0-72.67c15.63,0,26.75,8.53,31.73,18.6l-12.56,5.08A21.73,21.73,0,0,0,441.88,59.66Z"/><path class="cls-1" d="M476.73,118.52l35.9-70.18H514l35.86,70.18H535.26l-5.46-11H496.73l-5.37,11H476.73Zm26.5-22.72h20l-10-21.19Z"/><path class="cls-1" d="M609.17,106.63v11.89H558.65V48.34h13.42v58.29h37.1Z"/><path class="cls-1" d="M634.88,118.52H621.44V48.34h13.42v70.18h0Z"/><path class="cls-1" d="M650.49,83.43c0-20,14.38-36.43,36.33-36.43s36.43,16.39,36.43,36.43-14.37,36.43-36.42,36.43S650.49,103.57,650.49,83.43Zm13.33,0c0,12.75,10.35,24,23,24s23-11.22,23-24-10.26-23.87-23-23.87S663.82,70.78,663.82,83.43Z"/></g><g id="mountains"><polygon class="cls-2" points="320.76 122.41 259.26 23 197.75 122.41 320.76 122.41"/><polygon class="cls-1" points="278.82 122.41 227.78 39.91 176.74 122.41 278.82 122.41"/></g></g><path d="M201.14,147l-5,17h-1.58l-4.42-15.24h0L185.73,164h-1.58l-5-17h1.37l4.37,15.26h0L189.35,147H191l4.42,15.26h0L199.77,147h1.37Z"/><path d="M213.34,158.67h-9.1a4.42,4.42,0,0,0,4.35,4.56,4.33,4.33,0,0,0,3.69-2l0.92,0.74a5.48,5.48,0,0,1-4.61,2.3,5.61,5.61,0,0,1-5.62-5.93,5.54,5.54,0,0,1,5.44-5.86,5,5,0,0,1,5.2,5.16c0,0.12,0,.36,0,0.46S213.36,158.48,213.34,158.67Zm-1-1c-0.09-2.35-1.54-4.06-4-4.06a4.28,4.28,0,0,0-4.14,4.06h8.11Z"/><path d="M232.46,164H231.2v-6.36c0-2.16-.66-4.06-3.12-4.06-1.94,0-3.69,1.61-3.69,4.73V164h-1.25V145.85h1.25V155h0a4.1,4.1,0,0,1,3.9-2.52c2.88,0,4.11,2,4.11,4.66V164Z"/><path d="M244,164a15.26,15.26,0,0,1-.17-2.11h-0.07a4.19,4.19,0,0,1-4,2.42c-1.7,0-3.76-.94-3.76-3.34,0-3,3-3.6,5.89-3.7,0.43,0,1.49,0,1.91,0V156.7a2.81,2.81,0,0,0-3.14-3.12,4.67,4.67,0,0,0-3.29,1.32l-0.71-.84a5.9,5.9,0,0,1,4.11-1.54c2.41,0,4.18,1.3,4.18,4.06v4.9a19,19,0,0,0,.19,2.52H244Zm-0.24-5.76h-0.9c-2.55,0-5.65.36-5.65,2.69,0,1.75,1.51,2.33,2.79,2.33,2.6,0,3.76-2,3.76-4.1v-0.91Z"/><path d="M258.57,164h-1.25v-6.36c0-2.16-.66-4.06-3.14-4.06-1.91,0-3.69,1.61-3.69,4.73V164h-1.23v-8.59c0-.65,0-1.85-0.09-2.57h1.18c0.07,0.6.09,1.66,0.09,2.26h0a4.29,4.29,0,0,1,4-2.57c2.88,0,4.11,2,4.11,4.66V164Z"/><path d="M273.25,164H272v-2.26h0a5,5,0,0,1-4.42,2.57,5.9,5.9,0,0,1,0-11.79,5,5,0,0,1,4.42,2.62h0v-9.29h1.25V164Zm-5.6-10.42c-2.79,0-4.44,2.21-4.44,4.85s1.65,4.8,4.44,4.8A4.84,4.84,0,0,0,267.64,153.58Z"/><path d="M286.65,162.56a5.06,5.06,0,0,1-4,1.75,5.89,5.89,0,0,1,0-11.79,5.13,5.13,0,0,1,3.92,1.78l-1,.72a3.7,3.7,0,0,0-3-1.44c-2.74,0-4.49,2.16-4.49,4.85a4.47,4.47,0,0,0,4.49,4.8,3.8,3.8,0,0,0,3.07-1.39Z"/><path d="M294.89,153.78a3.19,3.19,0,0,0-.8-0.1c-2.06,0-3.47,1.78-3.47,4.58V164h-1.23v-8.59c0-.65,0-1.85-0.09-2.57h1.18c0.07,0.6.09,1.66,0.09,2.26h0a3.81,3.81,0,0,1,3.62-2.57,3.35,3.35,0,0,1,.5,0,2.91,2.91,0,0,1,.35.22S294.89,153.78,294.89,153.78Z"/><path d="M304.73,164a15.26,15.26,0,0,1-.17-2.11h-0.07a4.19,4.19,0,0,1-4,2.42c-1.7,0-3.76-.94-3.76-3.34,0-3,3-3.6,5.89-3.7,0.43,0,1.49,0,1.91,0V156.7a2.81,2.81,0,0,0-3.14-3.12,4.67,4.67,0,0,0-3.29,1.32l-0.71-.84a5.9,5.9,0,0,1,4.11-1.54c2.41,0,4.18,1.3,4.18,4.06v4.9a19,19,0,0,0,.19,2.52h-1.11Zm-0.24-5.76h-0.9c-2.55,0-5.65.36-5.65,2.69,0,1.75,1.51,2.33,2.79,2.33,2.6,0,3.76-2,3.76-4.1v-0.91Z"/><path d="M314.89,146.81a3.53,3.53,0,0,0-1-.14c-1.75,0-2.17,1.34-2.17,2.9v3.26h2.72v1.06h-2.72V164h-1.23V153.9h-2.32v-1.06h2.29v-3.38c0-2.62,1.32-3.89,3.45-3.89a4.38,4.38,0,0,1,1.25.17Z"/><path d="M321.58,163.88a4.8,4.8,0,0,1-1.73.31,2.53,2.53,0,0,1-2.69-2.86V153.9h-2.32v-1.06h2.32v-3.19h1.25v3.19h3.14v1.06h-3.14V161c0,1.61.71,2.06,1.77,2.06a3.24,3.24,0,0,0,1.32-.31Z"/><path d="M333.11,164.29a4.91,4.91,0,0,1-4.18-2.06l1-.74a3.7,3.7,0,0,0,3.19,1.73c1.39,0,2.72-.65,2.72-2.21s-1.47-1.9-3.33-2.38c-1.42-.36-3.07-0.91-3.07-3s1.84-3.12,3.73-3.12a4.24,4.24,0,0,1,3.69,1.87l-0.95.72a3.1,3.1,0,0,0-2.79-1.54c-1.16,0-2.51.53-2.51,2s1,1.75,2.81,2.16c2.32,0.5,3.64,1.37,3.64,3.19C337.06,163.28,335.09,164.29,333.11,164.29Z"/><path d="M351.21,158.41a5.83,5.83,0,1,1-5.84-5.88A5.66,5.66,0,0,1,351.21,158.41Zm-10.35,0a4.54,4.54,0,1,0,4.51-4.82A4.51,4.51,0,0,0,340.86,158.41Z"/><path d="M356.08,164h-1.25V145.85h1.25V164Z"/><path d="M368.63,164c-0.07-.6-0.09-1.66-0.09-2.26h0a4.28,4.28,0,0,1-3.95,2.57c-2.88,0-4.11-2-4.11-4.66v-6.82h1.23v6.34c0,2.18.66,4.08,3.14,4.08,1.94,0,3.69-1.63,3.69-4.75v-5.67h1.23v8.59c0,0.62,0,1.85.12,2.57h-1.21Z"/><path d="M378.51,163.88a4.8,4.8,0,0,1-1.73.31,2.53,2.53,0,0,1-2.69-2.86V153.9h-2.32v-1.06h2.32v-3.19h1.25v3.19h3.14v1.06h-3.14V161c0,1.61.71,2.06,1.77,2.06a3.24,3.24,0,0,0,1.32-.31Z"/><path d="M382.74,148.35a1,1,0,0,1-.92,1,1,1,0,0,1,0-1.94A1,1,0,0,1,382.74,148.35ZM382.43,164H381.2V152.84h1.23V164Z"/><path d="M397.7,158.41a5.83,5.83,0,1,1-5.84-5.88A5.66,5.66,0,0,1,397.7,158.41Zm-10.35,0a4.54,4.54,0,1,0,4.51-4.82A4.51,4.51,0,0,0,387.35,158.41Z"/><path d="M410.63,164h-1.25v-6.36c0-2.16-.66-4.06-3.14-4.06-1.91,0-3.69,1.61-3.69,4.73V164h-1.23v-8.59c0-.65,0-1.85-0.09-2.57h1.18c0.07,0.6.09,1.66,0.09,2.26h0a4.29,4.29,0,0,1,4-2.57c2.88,0,4.11,2,4.11,4.66V164Z"/><path d="M417.9,164.29a4.91,4.91,0,0,1-4.18-2.06l1-.74a3.7,3.7,0,0,0,3.19,1.73c1.39,0,2.72-.65,2.72-2.21s-1.47-1.9-3.33-2.38c-1.42-.36-3.07-0.91-3.07-3s1.84-3.12,3.73-3.12a4.24,4.24,0,0,1,3.69,1.87l-0.95.72a3.1,3.1,0,0,0-2.79-1.54c-1.16,0-2.51.53-2.51,2s1,1.75,2.81,2.16c2.32,0.5,3.64,1.37,3.64,3.19C421.85,163.28,419.89,164.29,417.9,164.29Z"/><path d="M435.84,163.88a4.8,4.8,0,0,1-1.73.31,2.53,2.53,0,0,1-2.69-2.86V153.9h-2.32v-1.06h2.32v-3.19h1.25v3.19h3.14v1.06h-3.14V161c0,1.61.71,2.06,1.77,2.06a3.24,3.24,0,0,0,1.32-.31Z"/><path d="M449.31,158.41a5.83,5.83,0,1,1-5.84-5.88A5.66,5.66,0,0,1,449.31,158.41Zm-10.35,0a4.54,4.54,0,1,0,4.51-4.82A4.51,4.51,0,0,0,439,158.41Z"/><path d="M467.75,162.56a5.06,5.06,0,0,1-4,1.75,5.89,5.89,0,0,1,0-11.79,5.13,5.13,0,0,1,3.92,1.78l-1,.72a3.7,3.7,0,0,0-3-1.44c-2.74,0-4.49,2.16-4.49,4.85a4.47,4.47,0,0,0,4.49,4.8,3.8,3.8,0,0,0,3.07-1.39Z"/><path d="M481.27,158.41a5.83,5.83,0,1,1-5.84-5.88A5.66,5.66,0,0,1,481.27,158.41Zm-10.35,0a4.54,4.54,0,1,0,4.51-4.82A4.51,4.51,0,0,0,470.91,158.41Z"/><path d="M501.45,164H500.2v-6.36c0-2.18-.76-4.06-3-4.06s-3.47,2.06-3.47,4.58V164h-1.23v-6.58c0-2.09-.57-3.84-2.86-3.84-1.8,0-3.52,1.61-3.52,4.73V164h-1.23v-8.59c0-.65,0-1.85-0.09-2.57H486c0.07,0.6.09,1.66,0.09,2.26h0a4.05,4.05,0,0,1,3.78-2.57,3.48,3.48,0,0,1,3.47,2.71,0,0,0,0,0,0,0,4.14,4.14,0,0,1,4-2.69c2.86,0,4.09,2,4.09,4.66V164Z"/><path d="M511.49,164.31a5,5,0,0,1-4.42-2.57H507v8h-1.23V152.84H507v2.3h0.07a5,5,0,0,1,4.42-2.62c3.38,0,5.63,2.54,5.63,5.9A5.55,5.55,0,0,1,511.49,164.31Zm-0.12-10.73a4.84,4.84,0,0,0,0,9.65c2.79,0,4.44-2.16,4.44-4.8S514.16,153.58,511.38,153.58Z"/><path d="M522,164h-1.25V145.85H522V164Z"/><path d="M536,158.67h-9.1a4.42,4.42,0,0,0,4.35,4.56,4.33,4.33,0,0,0,3.69-2l0.92,0.74a5.49,5.49,0,0,1-4.61,2.3,5.61,5.61,0,0,1-5.62-5.93,5.54,5.54,0,0,1,5.44-5.86,5,5,0,0,1,5.2,5.16c0,0.12,0,.36,0,0.46S536,158.48,536,158.67Zm-1-1c-0.09-2.35-1.54-4.06-4-4.06a4.28,4.28,0,0,0-4.14,4.06H535Z"/><path d="M548.34,164h-1.61l-3.54-4.94L539.62,164H538.1l4.33-5.81-4-5.35H540l3.17,4.46,3.17-4.46h1.51l-3.95,5.3Z"/><path d="M561.67,163.88a4.81,4.81,0,0,1-1.73.31,2.53,2.53,0,0,1-2.69-2.86V153.9h-2.32v-1.06h2.32v-3.19h1.25v3.19h3.14v1.06H558.5V161c0,1.61.71,2.06,1.77,2.06a3.23,3.23,0,0,0,1.32-.31Z"/><path d="M573.86,158.67h-9.1a4.42,4.42,0,0,0,4.35,4.56,4.33,4.33,0,0,0,3.69-2l0.92,0.74a5.49,5.49,0,0,1-4.61,2.3,5.61,5.61,0,0,1-5.62-5.93,5.54,5.54,0,0,1,5.44-5.86,5,5,0,0,1,5.2,5.16c0,0.12,0,.36,0,0.46S573.89,158.48,573.86,158.67Zm-1-1c-0.09-2.35-1.54-4.06-4-4.06a4.27,4.27,0,0,0-4.14,4.06h8.11Z"/><path d="M586.67,162.56a5.06,5.06,0,0,1-4,1.75,5.89,5.89,0,0,1,0-11.79,5.13,5.13,0,0,1,3.92,1.78l-1,.72a3.7,3.7,0,0,0-3-1.44c-2.74,0-4.49,2.16-4.49,4.85a4.47,4.47,0,0,0,4.49,4.8,3.8,3.8,0,0,0,3.07-1.39Z"/><path d="M598.73,164h-1.25v-6.36c0-2.16-.66-4.06-3.12-4.06-1.94,0-3.69,1.61-3.69,4.73V164h-1.25V145.85h1.25V155h0a4.1,4.1,0,0,1,3.9-2.52c2.88,0,4.11,2,4.11,4.66V164Z"/><path d="M612.38,164h-1.25v-6.36c0-2.16-.66-4.06-3.14-4.06-1.92,0-3.69,1.61-3.69,4.73V164h-1.23v-8.59c0-.65,0-1.85-0.09-2.57h1.18c0.07,0.6.09,1.66,0.09,2.26h0a4.29,4.29,0,0,1,4-2.57c2.88,0,4.11,2,4.11,4.66V164Z"/><path d="M618.27,148.35a1,1,0,0,1-.92,1,1,1,0,0,1,0-1.94A1,1,0,0,1,618.27,148.35ZM618,164h-1.23V152.84H618V164Z"/><path d="M631.36,162.56a5.06,5.06,0,0,1-4,1.75,5.89,5.89,0,0,1,0-11.79,5.13,5.13,0,0,1,3.92,1.78l-1,.72a3.7,3.7,0,0,0-3-1.44c-2.74,0-4.49,2.16-4.49,4.85a4.47,4.47,0,0,0,4.49,4.8,3.8,3.8,0,0,0,3.07-1.39Z"/><path d="M641.29,164a15.26,15.26,0,0,1-.17-2.11h-0.07a4.19,4.19,0,0,1-4,2.42c-1.7,0-3.76-.94-3.76-3.34,0-3,3-3.6,5.89-3.7,0.42,0,1.49,0,1.91,0V156.7a2.81,2.81,0,0,0-3.14-3.12,4.67,4.67,0,0,0-3.29,1.32l-0.71-.84a5.9,5.9,0,0,1,4.11-1.54c2.41,0,4.18,1.3,4.18,4.06v4.9a18.87,18.87,0,0,0,.19,2.52h-1.11Zm-0.24-5.76h-0.9c-2.55,0-5.65.36-5.65,2.69,0,1.75,1.51,2.33,2.79,2.33,2.6,0,3.76-2,3.76-4.1v-0.91Z"/><path d="M647.81,164h-1.25V145.85h1.25V164Z"/><path d="M659.74,148.35a1,1,0,0,1-.92,1,1,1,0,0,1,0-1.94A1,1,0,0,1,659.74,148.35ZM659.44,164h-1.23V152.84h1.23V164Z"/><path d="M666.86,164.29a4.9,4.9,0,0,1-4.18-2.06l1-.74a3.7,3.7,0,0,0,3.19,1.73c1.39,0,2.72-.65,2.72-2.21s-1.47-1.9-3.33-2.38c-1.42-.36-3.07-0.91-3.07-3s1.84-3.12,3.73-3.12a4.24,4.24,0,0,1,3.69,1.87l-0.95.72a3.1,3.1,0,0,0-2.79-1.54c-1.16,0-2.5.53-2.5,2s1,1.75,2.81,2.16c2.32,0.5,3.64,1.37,3.64,3.19C670.81,163.28,668.85,164.29,666.86,164.29Z"/><path d="M677.12,164.29a4.9,4.9,0,0,1-4.18-2.06l1-.74a3.7,3.7,0,0,0,3.19,1.73c1.39,0,2.72-.65,2.72-2.21s-1.47-1.9-3.33-2.38c-1.42-.36-3.07-0.91-3.07-3s1.84-3.12,3.73-3.12a4.24,4.24,0,0,1,3.69,1.87l-0.95.72a3.1,3.1,0,0,0-2.79-1.54c-1.16,0-2.5.53-2.5,2s1,1.75,2.81,2.16c2.32,0.5,3.64,1.37,3.64,3.19C681.06,163.28,679.1,164.29,677.12,164.29Z"/><path d="M692.5,164c-0.07-.6-0.09-1.66-0.09-2.26h0a4.28,4.28,0,0,1-3.95,2.57c-2.88,0-4.11-2-4.11-4.66v-6.82h1.23v6.34c0,2.18.66,4.08,3.14,4.08,1.94,0,3.69-1.63,3.69-4.75v-5.67h1.23v8.59c0,0.62,0,1.85.12,2.57H692.5Z"/><path d="M707.6,158.67h-9.1a4.42,4.42,0,0,0,4.35,4.56,4.33,4.33,0,0,0,3.69-2l0.92,0.74a5.49,5.49,0,0,1-4.61,2.3,5.61,5.61,0,0,1-5.62-5.93,5.54,5.54,0,0,1,5.44-5.86,5,5,0,0,1,5.2,5.16c0,0.12,0,.36,0,0.46S707.63,158.48,707.6,158.67Zm-1-1c-0.09-2.35-1.54-4.06-4-4.06a4.28,4.28,0,0,0-4.14,4.06h8.11Z"/><path d="M714.43,164.29a4.9,4.9,0,0,1-4.18-2.06l1-.74a3.7,3.7,0,0,0,3.19,1.73c1.39,0,2.72-.65,2.72-2.21s-1.47-1.9-3.33-2.38c-1.42-.36-3.07-0.91-3.07-3s1.84-3.12,3.73-3.12a4.24,4.24,0,0,1,3.69,1.87l-0.95.72a3.1,3.1,0,0,0-2.79-1.54c-1.16,0-2.5.53-2.5,2s1,1.75,2.81,2.16c2.32,0.5,3.64,1.37,3.64,3.19C718.38,163.28,716.42,164.29,714.43,164.29Z"/></svg>