<svg id="Layer_1" data-name="Layer 1" xmlns="http://www.w3.org/2000/svg" viewBox="0 0 899 330"><defs><style>.cls-1,.cls-2{fill:#d5333e;}.cls-2{stroke:#fff;stroke-miterlimit:10;}</style></defs><title>header-BNx</title><path id="circle" class="cls-1" d="M449.5,20c-82.74,0-150,67.26-150,150s67.26,150,150,150,150-67.26,150-150S532.24,20,449.5,20Zm0,276a126,126,0,1,1,126-126A126,126,0,0,1,449.5,296Z"/><path class="cls-1" d="M411,221.58h10.8c5.07,0,10.6,1.06,10.6,7.37,0,3.23-2,5.44-5,6.38v0.08a6.94,6.94,0,0,1,6.34,7.08c0,6.06-5.73,8.06-10.89,8.06H411v-29Zm6.38,11.58H422c2,0,4-.82,4-3.15s-2.29-3-4.3-3h-4.34v6.18Zm0,12h5.73c2,0,4.26-.86,4.26-3.4,0-2.74-3.07-3.19-5.16-3.19h-4.83v6.59Z"/><path class="cls-1" d="M437.49,221.58h8.68l12.32,20.13h0.08V221.58h6.38v29H456.6L444,229.93h-0.08v20.63h-6.38v-29Z"/><path class="cls-1" d="M475.43,239.91l-6.63-9.25H476l3.52,5.4,3.4-5.4h6.83l-6.47,9.25L491,250.55h-7.24l-4.34-6.63-4.67,6.63h-7.16Z"/><g id="bazel"><path class="cls-2" d="M422.3,95.12l24.79,24.79L422.3,144.71,397.5,119.91Z"/><path class="cls-2" d="M395.62,122.71v24.79l24.79,24.83V147.55Z"/><path class="cls-2" d="M475.75,95.12l24.79,24.79-24.79,24.79L451,119.91Z"/><path class="cls-2" d="M503.38,121.75v24.79l-24.79,24.83V146.58Z"/><path class="cls-2" d="M449,121.75l24.79,24.79L449,171.37l-24.79-24.79Z"/><path class="cls-2" d="M448.06,174.27v24.79l-24.79-24.79V149.48Z"/><path class="cls-2" d="M451,174.27l24.79-24.79v24.79L451,199.07V174.27Z"/></g></svg>