<svg id="Layer_1" data-name="Layer 1" xmlns="http://www.w3.org/2000/svg" viewBox="0 0 300 300"><defs><style>.cls-1,.cls-2{fill:#d5333e;}.cls-2{stroke:#fff;stroke-miterlimit:10;}</style></defs><title>circle-bnx</title><path id="circle" class="cls-1" d="M150,0C67.26,0,0,67.26,0,150S67.26,300,150,300s150-67.26,150-150S232.74,0,150,0Zm0,276A126,126,0,1,1,276,150,126,126,0,0,1,150,276Z"/><path class="cls-1" d="M111.46,201.58h10.8c5.07,0,10.6,1.06,10.6,7.37,0,3.23-2,5.44-5,6.38v0.08a6.94,6.94,0,0,1,6.34,7.08c0,6.06-5.73,8.06-10.89,8.06H111.46v-29Zm6.38,11.58h4.62c2,0,4-.82,4-3.15s-2.29-3-4.3-3h-4.34v6.18Zm0,12h5.73c2,0,4.26-.86,4.26-3.4,0-2.74-3.07-3.19-5.16-3.19h-4.83v6.59Z"/><path class="cls-1" d="M138,201.58h8.68L159,221.71h0.08V201.58h6.38v29H157.1l-12.65-20.63h-0.08v20.63H138v-29Z"/><path class="cls-1" d="M175.93,219.91l-6.63-9.25h7.24l3.52,5.4,3.4-5.4h6.83l-6.47,9.25,7.65,10.64h-7.24l-4.34-6.63-4.67,6.63h-7.16Z"/><g id="bazel"><path class="cls-2" d="M122.8,75.12l24.79,24.79L122.8,124.71,98,99.91Z"/><path class="cls-2" d="M96.12,102.71v24.79l24.79,24.83V127.55Z"/><path class="cls-2" d="M176.25,75.12L201,99.91l-24.79,24.79L151.45,99.91Z"/><path class="cls-2" d="M203.88,101.75v24.79l-24.79,24.83V126.58Z"/><path class="cls-2" d="M149.52,101.75l24.79,24.79-24.79,24.83-24.79-24.79Z"/><path class="cls-2" d="M148.56,154.27v24.79l-24.79-24.79V129.48Z"/><path class="cls-2" d="M151.45,154.27l24.79-24.79v24.79l-24.79,24.79V154.27Z"/></g></svg>